<?xml version="1.0" standalone="no"?>
<!DOCTYPE svg PUBLIC "-//W3C//DTD SVG 20010904//EN"
 "http://www.w3.org/TR/2001/REC-SVG-20010904/DTD/svg10.dtd">
<svg version="1.0" xmlns="http://www.w3.org/2000/svg"
 width="300.000000pt" height="283.000000pt" viewBox="0 0 300.000000 283.000000"
 preserveAspectRatio="xMidYMid meet">

<g transform="translate(0.000000,283.000000) scale(0.100000,-0.100000)"
fill="#000000" stroke="none">
<path d="M1420 2824 c0 -3 11 -25 25 -49 25 -41 54 -153 55 -205 0 -23 -1 -23
-37 12 -21 21 -58 46 -83 57 -41 18 -148 41 -192 41 -28 0 -21 -15 16 -32 25
-12 42 -33 65 -79 17 -34 30 -64 28 -65 -2 -2 -27 6 -56 17 -75 28 -221 28
-221 0 0 -5 18 -11 40 -14 22 -3 56 -16 77 -28 l38 -24 -51 -6 c-214 -27 -380
-186 -415 -398 -21 -124 14 -252 100 -366 l38 -50 -57 -18 c-76 -24 -182 -106
-245 -190 -29 -37 -80 -122 -115 -188 -81 -153 -129 -207 -227 -256 -64 -31
-87 -38 -140 -38 -37 0 -62 -4 -60 -10 8 -23 161 -78 230 -83 43 -3 64 -8 55
-13 -10 -7 -9 -9 3 -9 9 0 27 8 40 19 23 18 23 18 -71 23 -104 5 -188 31 -168
51 6 7 23 12 38 13 35 1 132 50 180 92 43 36 99 120 155 232 95 191 220 311
362 349 39 11 45 9 85 -18 55 -37 102 -56 171 -71 44 -9 57 -16 67 -38 18 -39
24 -159 11 -223 -23 -110 -128 -288 -226 -385 -58 -56 -174 -118 -250 -133
-77 -15 -253 -24 -235 -11 11 7 1 10 -37 10 -29 0 -53 -4 -53 -10 0 -38 284
-31 393 10 31 12 81 37 109 56 45 31 53 33 61 19 25 -45 164 -220 234 -295
l80 -84 -26 -38 c-32 -45 -48 -47 -212 -18 -145 25 -196 25 -333 -1 -113 -22
-143 -22 -391 -3 -171 13 -251 -60 -201 -181 8 -19 27 -40 41 -47 23 -10 34
-7 103 29 172 92 331 101 533 32 106 -36 145 -36 210 -3 l51 25 256 -6 c172
-4 303 -12 395 -25 173 -25 271 -25 372 0 50 12 115 20 175 20 52 0 129 5 170
11 193 26 302 7 397 -67 66 -52 204 -144 216 -144 4 0 7 115 7 256 0 210 -2
254 -13 246 -22 -19 -128 -42 -192 -42 -78 0 -147 -18 -273 -69 -147 -60 -235
-70 -435 -49 -129 14 -163 15 -215 4 -50 -10 -62 -10 -62 0 0 7 -11 25 -24 41
l-24 27 113 108 c62 59 139 143 171 185 32 43 61 82 65 87 5 5 33 -3 65 -18
31 -15 81 -33 112 -41 74 -20 289 -23 322 -5 24 13 23 14 -32 25 -73 14 -86
26 -21 18 51 -6 198 19 237 39 18 10 12 13 -43 24 -35 7 -65 15 -68 17 -2 2
25 6 59 9 39 3 97 19 148 39 93 38 116 61 52 52 -89 -12 -239 65 -305 155 -19
26 -66 105 -103 176 -81 150 -166 250 -265 308 -34 21 -67 39 -72 41 -6 2 9
27 32 57 68 90 85 146 86 280 0 113 -1 117 -37 193 -71 148 -198 242 -363 270
l-80 14 58 29 c31 15 57 32 57 37 0 17 -113 0 -179 -27 -35 -14 -66 -24 -68
-23 -10 11 85 99 130 120 l52 25 -40 8 c-53 10 -157 -17 -212 -55 l-42 -30 6
33 c12 75 -34 155 -123 217 -43 29 -54 34 -54 23z m151 -166 c5 -21 7 -68 3
-105 l-6 -68 32 38 c36 42 106 81 163 90 44 7 47 -2 9 -24 -15 -8 -47 -41 -71
-73 -54 -70 -46 -88 25 -52 54 27 171 63 140 43 -107 -69 -190 -179 -248 -327
-48 -120 -39 -116 25 13 36 71 71 135 79 143 8 8 44 17 80 21 166 15 326 -92
373 -251 53 -179 -52 -375 -233 -431 -73 -23 -189 -17 -259 14 -52 23 -60 34
-45 58 6 10 18 7 51 -9 92 -46 220 -30 297 36 23 19 54 60 70 90 28 53 28 55
10 75 -10 11 -39 27 -65 35 -54 17 -231 36 -342 36 -94 0 -105 -11 -91 -89 l9
-49 -69 -4 c-67 -3 -68 -2 -69 22 0 15 -3 19 -6 10 -16 -44 -67 -109 -102
-128 -50 -28 -123 -38 -177 -23 -63 17 -154 105 -154 150 0 5 21 14 48 20 40
9 48 8 57 -6 6 -10 21 -29 36 -44 22 -23 23 -28 10 -38 -14 -9 -14 -10 -1 -8
8 1 14 -4 12 -11 -1 -7 3 -12 10 -11 7 2 33 -4 56 -11 34 -11 48 -11 60 -2 23
16 65 36 74 34 4 -1 5 5 2 13 -4 10 -11 12 -22 6 -10 -5 -34 -9 -54 -9 l-38 0
33 22 c17 12 41 38 52 58 18 33 23 36 60 35 34 -2 40 1 43 20 6 39 -54 48
-221 35 -149 -12 -231 -30 -266 -60 l-22 -17 31 -60 c39 -76 71 -109 137 -141
45 -23 63 -26 125 -22 51 2 87 11 120 28 56 28 76 19 33 -16 -47 -39 -155 -68
-229 -62 -136 11 -260 103 -306 226 -31 81 -25 205 14 280 74 146 242 221 404
182 58 -13 71 -26 105 -95 71 -146 69 -144 62 -105 -4 19 -23 69 -42 110 -42
87 -135 188 -223 239 l-55 33 59 -6 c35 -3 80 -15 109 -31 27 -14 52 -24 54
-22 7 7 -37 114 -62 151 l-24 36 22 0 c77 0 177 -57 218 -124 l18 -30 11 30
c14 36 5 130 -19 202 l-19 54 44 -43 c27 -26 49 -59 55 -81z m387 -241 c23 -7
40 -16 37 -19 -3 -3 6 -5 20 -5 32 0 44 -11 25 -23 -8 -6 -10 -10 -5 -10 6 0
17 6 24 13 11 10 12 9 6 -1 -5 -9 -1 -12 11 -10 11 2 18 -2 17 -9 -2 -7 3 -10
11 -7 8 3 17 0 22 -7 4 -8 3 -10 -4 -5 -8 5 -10 1 -6 -9 5 -11 10 -13 17 -6
11 11 90 -67 81 -81 -3 -4 -11 -5 -17 -1 -7 4 -6 0 2 -10 11 -14 11 -17 0 -17
-12 0 -12 -2 0 -9 7 -5 23 -6 35 -3 11 3 18 1 13 -3 -4 -5 -1 -15 7 -24 21
-25 36 -102 36 -183 0 -86 -8 -121 -24 -111 -6 4 -4 -2 4 -12 14 -17 13 -18
-5 -11 -15 5 -17 4 -9 -4 14 -14 6 -52 -9 -43 -6 3 -7 1 -3 -6 9 -15 -31 -81
-50 -81 -8 0 -14 6 -15 13 0 9 -2 9 -6 -1 -2 -6 -9 -10 -14 -6 -5 3 -5 14 2
27 10 21 9 21 -5 3 -9 -10 -12 -24 -8 -30 4 -6 7 -14 8 -18 1 -5 2 -11 3 -15
0 -4 6 -2 13 5 27 27 30 10 3 -18 -27 -28 -53 -42 -41 -21 3 5 -2 15 -12 22
-15 13 -16 12 -4 -3 11 -14 10 -18 -5 -28 -17 -11 -17 -11 1 -6 16 6 17 4 6
-9 -41 -49 -309 -127 -284 -82 5 9 4 9 -5 1 -8 -7 -26 -8 -54 -3 -23 4 -46 8
-52 9 -5 0 -3 5 5 10 11 8 9 9 -10 5 -28 -7 -131 42 -138 65 -3 8 0 10 8 5 9
-6 12 -4 8 6 -3 8 0 23 8 34 9 12 14 14 14 5 0 -7 3 -11 6 -7 3 3 23 -3 42
-14 20 -10 47 -19 59 -19 29 0 38 -16 16 -29 -10 -6 -13 -11 -7 -11 6 0 17 6
23 14 7 9 36 13 88 14 59 0 90 6 128 23 58 26 99 34 89 16 -4 -7 -3 -8 1 -4 5
4 10 14 11 22 2 12 -2 13 -19 3 -20 -10 -21 -10 -8 6 8 10 22 15 31 13 11 -3
17 1 16 12 0 9 9 20 22 26 12 5 22 14 22 19 0 5 15 38 33 75 43 87 50 198 18
280 -12 29 -19 56 -17 59 3 2 10 -7 15 -22 12 -31 21 -35 14 -6 -6 21 -20 34
-38 35 -5 0 -8 9 -7 20 2 11 0 17 -4 12 -10 -9 -54 32 -54 51 0 9 -3 12 -7 9
-3 -4 -15 0 -25 9 -14 13 -15 20 -7 31 7 7 9 16 5 20 -3 3 -6 1 -6 -5 0 -7 -5
-12 -11 -12 -5 0 -7 5 -3 12 4 7 3 8 -5 4 -6 -4 -8 -12 -5 -18 4 -6 -2 -5 -15
2 -12 6 -19 15 -16 20 3 6 -1 7 -9 4 -8 -3 -34 3 -58 13 -30 13 -64 18 -110
17 l-67 -1 22 23 c18 19 32 24 77 24 30 0 74 -6 98 -13z m-708 -28 c31 -28 32
-30 10 -23 -14 4 -59 7 -100 6 -70 -2 -87 8 -35 21 15 3 12 5 -8 6 -20 1 -30
-5 -34 -17 -2 -10 -24 -25 -51 -34 -26 -10 -66 -33 -88 -52 -23 -20 -45 -32
-49 -28 -5 4 -5 2 -2 -4 4 -6 -3 -20 -14 -30 -12 -11 -30 -37 -41 -59 -25 -48
-41 -60 -50 -37 -7 14 -7 14 -5 -3 2 -11 9 -19 16 -17 9 2 11 -3 7 -13 -15
-39 -18 -126 -6 -176 16 -69 42 -120 85 -168 19 -21 31 -41 27 -45 -4 -4 0 -6
8 -4 8 2 14 -2 13 -8 -1 -7 5 -11 15 -10 9 0 16 -5 14 -12 -1 -6 1 -11 5 -11
21 3 33 -2 27 -13 -4 -6 -3 -8 4 -4 12 7 103 -15 97 -24 -2 -3 39 -2 91 2 80
5 103 11 160 42 l67 35 21 -27 c24 -30 27 -48 8 -44 -6 1 -11 -3 -10 -9 5 -18
-103 -69 -132 -63 -18 4 -21 3 -11 -4 11 -8 2 -12 -35 -17 -53 -7 -76 -8 -84
-5 -3 1 -27 3 -55 4 -67 4 -100 15 -86 29 12 12 -3 37 -22 37 -6 0 -2 -7 9
-16 17 -14 17 -15 1 -10 -11 3 -16 2 -12 -4 3 -6 1 -10 -4 -10 -6 0 -11 5 -11
11 0 5 -4 8 -8 5 -15 -9 -142 88 -142 108 0 3 6 3 14 0 8 -3 17 0 21 5 3 6 10
9 15 6 4 -3 7 2 6 10 -2 16 -21 21 -21 6 0 -18 -16 -25 -25 -11 -7 10 -10 11
-10 3 0 -7 -5 -13 -11 -13 -6 0 -8 8 -4 19 3 11 1 22 -4 26 -7 4 -8 -1 -4 -12
5 -16 4 -17 -10 -3 -22 21 -64 129 -63 162 1 15 -1 25 -5 22 -11 -6 -10 97 2
159 5 33 18 74 27 93 14 30 20 34 44 30 25 -4 27 -2 18 15 -13 23 -22 25 -14
4 5 -11 2 -13 -10 -9 -13 5 -12 10 6 35 12 15 25 26 30 23 5 -3 7 -2 6 3 -2 4
10 22 25 40 26 28 32 30 60 22 17 -5 33 -6 36 -4 2 3 -1 5 -8 5 -8 0 -11 6 -7
16 5 14 4 15 -9 4 -9 -7 -18 -10 -21 -7 -3 3 17 17 45 31 28 15 51 25 51 22 0
-2 17 2 38 10 20 7 64 13 97 13 53 0 64 -4 95 -30z m984 -168 c3 -5 0 -11 -7
-14 -8 -3 -14 1 -14 9 0 16 13 19 21 5z m-565 -271 c10 0 25 -15 34 -35 10
-21 31 -42 51 -52 20 -9 33 -20 30 -25 -3 -4 0 -8 6 -8 6 0 9 -4 6 -8 -9 -15
64 -12 100 3 19 8 34 17 34 20 0 3 -8 2 -17 -3 -10 -5 -29 -6 -43 -2 l-25 6
30 16 c17 9 37 28 45 42 16 30 17 31 64 11 35 -15 36 -16 22 -43 -35 -66 -117
-112 -200 -112 -80 1 -169 61 -202 139 -22 53 -19 65 17 57 17 -3 39 -6 48 -6z
m-52 -122 c7 -6 13 -19 13 -30 0 -19 -99 -197 -110 -197 -3 0 -17 19 -32 42
-16 23 -41 62 -58 87 -16 24 -30 49 -30 55 0 22 27 47 60 55 42 11 139 4 157
-12z m642 -231 c94 -56 187 -166 266 -317 81 -155 145 -231 233 -278 33 -18
66 -32 73 -32 8 -1 28 -7 44 -14 l30 -13 -69 -22 c-43 -13 -94 -21 -139 -21
-67 0 -70 -1 -54 -17 9 -10 36 -25 60 -34 l42 -17 -40 -8 c-22 -5 -92 -8 -155
-7 -115 1 -115 1 -91 -18 13 -10 33 -19 46 -19 13 0 25 -6 28 -13 4 -10 -16
-12 -92 -9 -130 5 -194 17 -268 51 -111 53 -199 154 -292 339 -68 136 -89 260
-57 337 14 33 18 35 63 35 81 0 215 53 259 102 21 22 39 18 113 -25z m-727
-42 c7 11 19 26 27 33 10 8 11 11 2 6 -9 -5 -12 -3 -7 4 5 8 18 5 44 -12 51
-31 146 -66 183 -66 26 0 30 -3 23 -17 -4 -10 -9 -54 -12 -99 -3 -68 0 -92 23
-159 l28 -79 -29 -23 c-38 -30 -99 -31 -116 -3 -7 11 -16 20 -20 20 -5 0 -17
-9 -28 -20 -35 -35 -66 -26 -97 27 -22 38 -29 44 -31 28 -7 -37 -43 -65 -84
-65 -35 0 -39 3 -44 30 -8 37 -11 37 -45 4 -35 -33 -97 -38 -128 -10 -12 11
-21 25 -21 33 0 7 -4 13 -10 13 -19 0 -10 -36 14 -59 34 -32 88 -38 129 -13
34 19 35 19 51 1 24 -29 87 -25 125 7 17 14 31 21 31 15 0 -21 40 -51 68 -51
15 0 37 7 49 15 18 13 22 13 33 0 20 -24 91 -19 132 9 l36 24 50 -83 50 -84
-26 -3 c-15 -2 -39 0 -54 4 -23 5 -28 3 -28 -12 0 -28 -39 -60 -72 -60 -23 0
-31 6 -40 31 l-11 31 -17 -26 c-24 -37 -51 -55 -83 -56 -23 0 -29 5 -33 30 -8
37 -22 39 -26 3 -7 -60 -100 -83 -114 -28 -7 29 -24 34 -24 7 0 -27 -20 -42
-56 -42 -50 0 -85 36 -91 93 -6 52 -12 57 -30 27 -28 -44 -107 -61 -165 -36
-26 12 -22 -11 4 -25 32 -17 95 -13 132 9 l33 19 12 -34 c21 -58 100 -90 153
-62 14 8 28 7 49 -1 33 -14 83 0 99 29 7 13 11 14 21 4 21 -21 65 -15 98 13
28 23 32 24 47 10 26 -27 72 -20 109 17 28 28 39 32 83 32 47 0 54 -3 83 -38
17 -21 30 -39 28 -41 -24 -21 -77 -37 -105 -31 -33 6 -34 5 -34 -25 0 -40 -33
-74 -60 -60 -26 14 -30 13 -30 -10 0 -34 -29 -80 -57 -91 -30 -11 -72 11 -80
42 -8 27 -17 23 -34 -13 -27 -63 -122 -85 -135 -32 -8 32 -20 30 -39 -6 -36
-69 -101 -54 -119 28 -12 50 -20 52 -41 12 -21 -41 -56 -40 -89 3 -23 30 -51
117 -38 117 3 0 1 5 -4 10 -7 7 -21 5 -42 -6 -37 -18 -80 -12 -128 17 -29 18
-44 17 -44 -3 0 -5 21 -18 46 -30 34 -15 60 -19 96 -16 40 4 51 2 55 -11 14
-47 38 -92 59 -112 27 -26 73 -28 90 -5 10 15 14 13 33 -19 35 -60 92 -66 130
-13 11 17 15 17 30 5 9 -8 24 -17 34 -20 24 -9 94 20 112 46 14 19 16 20 33 4
23 -21 80 -22 109 -2 12 8 27 30 33 49 8 26 15 33 30 29 24 -6 70 38 70 67 0
16 6 20 35 20 20 0 53 9 74 20 32 16 41 17 56 6 17 -12 17 -14 -2 -27 -11 -8
-20 -16 -19 -19 2 -12 -32 -49 -39 -42 -5 4 -5 2 -1 -5 10 -19 -130 -177 -147
-166 -6 3 -7 2 -4 -4 9 -15 -49 -67 -65 -57 -7 4 -10 3 -5 -1 9 -10 -31 -55
-50 -55 -7 0 -13 -3 -13 -8 0 -4 -17 -7 -38 -7 -46 0 -88 -25 -110 -66 -11
-20 -23 -28 -34 -25 -10 2 -18 0 -18 -5 0 -5 -27 -9 -59 -9 -49 0 -61 3 -65
18 -4 10 -15 28 -27 40 -19 21 -19 22 -1 22 11 0 31 10 46 21 l27 21 20 -21
c25 -26 39 -26 71 -1 17 13 28 16 35 9 6 -6 22 -7 36 -4 30 8 73 50 59 59 -5
3 -17 -3 -27 -14 -20 -22 -71 -27 -77 -8 -2 6 -15 0 -31 -16 -24 -23 -30 -26
-43 -15 -9 7 -20 24 -26 38 l-9 25 -25 -32 c-37 -47 -82 -45 -123 5 -37 45
-51 37 -22 -12 l21 -36 -32 3 c-20 2 -32 8 -31 16 2 6 -3 12 -10 12 -19 0 -69
55 -60 66 5 5 4 6 -1 1 -13 -10 -76 52 -76 76 0 10 -4 16 -9 13 -4 -3 -17 4
-27 16 -11 12 -13 18 -5 13 8 -4 -5 11 -28 34 -26 26 -40 48 -37 57 3 8 1 12
-4 9 -5 -3 -20 11 -33 32 -28 43 -27 49 35 127 60 76 144 224 168 296 27 79
30 198 7 253 l-16 37 42 0 c57 1 121 16 181 45 27 13 54 21 59 18 6 -3 7 -1 3
5 -3 6 4 18 16 27 22 15 23 14 41 -27 17 -40 19 -41 29 -23z m204 -1130 c23
-10 39 -26 49 -49 20 -47 19 -69 -5 -97 -19 -23 -20 -23 -35 -5 -8 10 -16 24
-19 30 -4 10 -18 -3 -30 -29 -3 -5 -10 -2 -16 8 -11 18 -13 18 -35 -3 -32 -30
-45 -18 -45 38 0 56 20 88 64 108 39 16 31 17 72 -1z m-370 -29 c29 -29 34
-41 34 -79 0 -56 -19 -76 -46 -46 -17 19 -19 19 -31 3 -12 -17 -14 -17 -27 1
-14 19 -15 19 -35 -5 l-21 -25 -21 25 c-30 35 -21 96 21 133 43 38 83 36 126
-7z"/>
<path d="M1125 1840 c-3 -6 1 -7 9 -4 18 7 21 14 7 14 -6 0 -13 -4 -16 -10z"/>
<path d="M1834 2412 c3 -6 -2 -13 -11 -15 -16 -4 -16 -5 -1 -6 21 -1 32 15 17
25 -7 4 -9 3 -5 -4z"/>
<path d="M1927 2409 c7 -7 15 -10 18 -7 3 3 -2 9 -12 12 -14 6 -15 5 -6 -5z"/>
<path d="M1955 2390 c-3 -6 1 -7 9 -4 18 7 21 14 7 14 -6 0 -13 -4 -16 -10z"/>
<path d="M2076 2322 c-2 -4 -1 -14 3 -21 6 -9 11 -10 15 -2 4 6 1 11 -6 11 -9
0 -9 3 2 10 9 6 10 10 3 10 -6 0 -14 -4 -17 -8z"/>
<path d="M2136 2302 c-3 -5 1 -9 9 -9 8 0 12 4 9 9 -3 4 -7 8 -9 8 -2 0 -6 -4
-9 -8z"/>
<path d="M2113 2281 c1 -11 7 -23 14 -26 11 -4 11 0 2 18 -16 31 -18 32 -16 8z"/>
<path d="M2170 2281 c0 -6 4 -13 10 -16 6 -3 7 1 4 9 -7 18 -14 21 -14 7z"/>
<path d="M2153 2262 c0 -11 5 -18 9 -16 4 3 8 -3 9 -13 0 -10 3 -13 6 -6 2 7
-2 22 -11 34 -15 22 -15 22 -13 1z"/>
<path d="M2269 2073 c-5 -29 -5 -53 -1 -48 7 6 12 55 6 55 -2 0 -5 -3 -5 -7z"/>
<path d="M2266 1963 c-6 -14 -5 -15 5 -6 7 7 10 15 7 18 -3 3 -9 -2 -12 -12z"/>
<path d="M2220 1960 c0 -17 17 -47 23 -40 2 3 -2 16 -10 30 -7 14 -13 18 -13
10z"/>
<path d="M2272 1920 c0 -14 2 -19 5 -12 2 6 2 18 0 25 -3 6 -5 1 -5 -13z"/>
<path d="M2219 1878 c-3 -16 -7 -59 -5 -57 16 18 25 49 16 54 -5 3 -10 5 -11
3z"/>
<path d="M2181 1837 c-6 -8 -8 -23 -4 -33 6 -15 8 -14 15 11 9 34 5 41 -11 22z"/>
<path d="M2235 1830 c-3 -5 -1 -10 4 -10 6 0 11 5 11 10 0 6 -2 10 -4 10 -3 0
-8 -4 -11 -10z"/>
<path d="M2211 1788 c5 -10 7 -24 3 -31 -4 -7 -3 -8 2 -4 14 13 12 54 -3 54
-8 0 -9 -5 -2 -19z"/>
<path d="M2113 1742 c-7 -4 -9 -13 -4 -21 6 -9 10 -7 14 8 3 12 4 21 4 21 -1
0 -7 -4 -14 -8z"/>
<path d="M1605 1671 c-3 -5 -2 -12 3 -15 5 -3 9 1 9 9 0 17 -3 19 -12 6z"/>
<path d="M2047 1659 c7 -7 15 -10 18 -7 3 3 -2 9 -12 12 -14 6 -15 5 -6 -5z"/>
<path d="M1654 1653 c4 -8 2 -13 -6 -13 -9 0 -9 -3 -2 -8 6 -4 14 -14 17 -22
3 -8 5 -3 4 12 -2 15 -7 31 -12 35 -4 4 -5 2 -1 -4z"/>
<path d="M2000 1653 c8 -2 22 -7 30 -10 12 -4 12 -7 -4 -19 -11 -8 -15 -14 -9
-14 6 0 15 6 22 13 14 17 -5 37 -33 36 -14 0 -16 -2 -6 -6z"/>
<path d="M1967 1635 c3 -8 9 -12 14 -9 12 7 11 11 -5 17 -10 4 -13 1 -9 -8z"/>
<path d="M1932 1631 c-11 -6 -10 -10 4 -15 9 -3 19 -4 22 -1 3 3 0 5 -7 5 -7
0 -9 5 -6 10 7 12 4 12 -13 1z"/>
<path d="M2036 1604 c-11 -8 -16 -14 -10 -14 13 0 39 18 34 24 -3 2 -14 -2
-24 -10z"/>
<path d="M1920 1576 c0 -9 30 -14 35 -6 4 6 -3 10 -14 10 -12 0 -21 -2 -21 -4z"/>
<path d="M1768 1563 c12 -2 30 -2 40 0 9 3 -1 5 -23 4 -22 0 -30 -2 -17 -4z"/>
<path d="M1855 1560 c-3 -5 3 -10 15 -10 12 0 18 5 15 10 -3 6 -10 10 -15 10
-5 0 -12 -4 -15 -10z"/>
<path d="M1192 2401 c-11 -7 -11 -9 0 -14 9 -3 15 1 15 9 0 8 -1 14 -1 14 -1
0 -7 -4 -14 -9z"/>
<path d="M1041 2384 c-7 -8 -11 -17 -9 -20 3 -2 13 5 23 16 10 11 14 20 9 20
-5 -1 -15 -8 -23 -16z"/>
<path d="M985 2350 c3 -5 8 -10 11 -10 2 0 4 5 4 10 0 6 -5 10 -11 10 -5 0 -7
-4 -4 -10z"/>
<path d="M886 2303 c-6 -14 -5 -15 5 -6 7 7 10 15 7 18 -3 3 -9 -2 -12 -12z"/>
<path d="M913 2308 c3 -9 1 -19 -6 -22 -9 -3 -9 -5 0 -5 18 -1 23 13 11 29 -8
12 -9 12 -5 -2z"/>
<path d="M770 2075 c-7 -9 -11 -18 -8 -20 3 -3 11 1 18 10 7 9 11 18 8 20 -3
3 -11 -1 -18 -10z"/>
<path d="M771 1954 c0 -11 3 -14 6 -6 3 7 2 16 -1 19 -3 4 -6 -2 -5 -13z"/>
<path d="M775 1878 c-11 -12 -15 -18 -8 -14 6 3 14 2 18 -4 3 -5 2 -10 -2 -10
-5 0 -9 -10 -10 -22 0 -13 1 -17 4 -10 3 6 8 10 13 7 4 -3 14 3 21 13 13 15
12 16 -3 3 -21 -15 -24 -2 -5 18 10 11 9 12 -2 6 -10 -6 -12 -2 -6 14 8 26 6
26 -20 -1z"/>
<path d="M785 1799 c-4 -6 -5 -12 -2 -15 2 -3 7 2 10 11 7 17 1 20 -8 4z"/>
<path d="M822 1796 c7 -8 17 -12 22 -9 4 3 2 9 -5 14 -22 13 -31 11 -17 -5z"/>
<path d="M850 1771 c0 -6 4 -13 10 -16 6 -3 7 1 4 9 -7 18 -14 21 -14 7z"/>
<path d="M1399 1693 c-1 -5 -1 -12 0 -17 1 -5 -6 -5 -16 -2 -14 6 -15 4 -6 -5
6 -6 25 -13 42 -15 26 -3 29 -1 19 10 -7 8 -14 10 -16 5 -7 -18 -21 -9 -17 11
2 11 2 20 -1 20 -2 0 -5 -3 -5 -7z"/>
<path d="M876 1681 c-4 -7 -5 -15 -2 -18 9 -9 55 -10 50 -1 -3 4 -11 8 -19 8
-7 0 -15 5 -17 12 -3 9 -6 9 -12 -1z"/>
<path d="M957 1642 c-17 -19 -12 -35 13 -40 12 -2 11 1 -2 11 -16 13 -16 15 0
30 9 9 14 17 11 17 -3 0 -13 -8 -22 -18z"/>
<path d="M1325 1649 c-4 -6 -5 -12 -2 -15 2 -3 7 2 10 11 7 17 1 20 -8 4z"/>
<path d="M1358 1635 c10 -15 9 -29 -3 -38 -6 -5 -4 -7 5 -4 8 2 15 12 15 23
-1 10 4 22 10 26 5 4 0 6 -12 5 -12 0 -19 -6 -15 -12z"/>
<path d="M1285 1630 c-3 -6 1 -7 9 -4 18 7 21 14 7 14 -6 0 -13 -4 -16 -10z"/>
<path d="M1035 1620 c-3 -6 1 -7 9 -4 9 3 16 1 16 -5 0 -6 5 -11 11 -11 8 0 8
5 -1 15 -14 17 -26 19 -35 5z"/>
<path d="M1098 1553 c6 -2 18 -2 25 0 6 3 1 5 -13 5 -14 0 -19 -2 -12 -5z"/>
<path d="M1238 1553 c7 -3 16 -2 19 1 4 3 -2 6 -13 5 -11 0 -14 -3 -6 -6z"/>
<path d="M1730 1850 c0 -5 5 -10 11 -10 5 0 7 5 4 10 -3 6 -8 10 -11 10 -2 0
-4 -4 -4 -10z"/>
<path d="M1505 1792 c-11 -2 -23 -9 -26 -15 -9 -14 9 -62 30 -81 17 -16 19
-15 31 13 6 16 9 35 5 40 -3 7 0 8 9 5 11 -4 14 0 13 15 -1 12 -7 19 -13 17
-6 -2 -15 -1 -20 3 -5 4 -18 6 -29 3z m25 -82 c0 -5 -5 -10 -11 -10 -5 0 -7 5
-4 10 3 6 8 10 11 10 2 0 4 -4 4 -10z"/>
<path d="M1260 1340 c0 -22 57 -71 90 -79 44 -9 100 2 116 24 11 15 14 15 39
-1 26 -17 30 -17 77 0 36 13 53 15 61 7 18 -18 72 -13 92 9 25 28 14 34 -22
14 -29 -17 -31 -17 -65 4 -35 22 -35 22 -53 2 -25 -28 -78 -27 -97 2 l-15 23
-31 -33 c-21 -22 -39 -32 -61 -32 -41 0 -76 18 -92 46 -12 24 -39 33 -39 14z"/>
<path d="M1140 586 c0 -2 8 -10 18 -17 15 -13 16 -12 3 4 -13 16 -21 21 -21
13z"/>
<path d="M1674 373 c1 -7 8 -19 15 -26 9 -9 14 -9 21 3 5 8 14 15 20 15 5 0 9
5 8 10 -5 16 -66 14 -64 -2z"/>
<path d="M1273 375 c1 -5 10 -17 19 -26 10 -9 14 -20 10 -25 -4 -5 3 0 15 10
13 10 20 23 17 27 -3 5 0 9 7 9 7 0 9 3 6 7 -11 11 -76 10 -74 -2z"/>
<path d="M180 811 c0 -18 115 -44 207 -47 94 -3 142 6 164 32 10 13 8 13 -17
3 -33 -14 -215 -18 -257 -6 -15 4 -25 12 -22 17 4 6 -11 10 -34 10 -23 0 -41
-4 -41 -9z"/>
</g>
</svg>
