<?xml version="1.0" standalone="no"?>
<!DOCTYPE svg PUBLIC "-//W3C//DTD SVG 20010904//EN"
 "http://www.w3.org/TR/2001/REC-SVG-20010904/DTD/svg10.dtd">
<svg version="1.0" xmlns="http://www.w3.org/2000/svg"
 width="1280.000000pt" height="640.000000pt" viewBox="0 0 1280.000000 640.000000"
 preserveAspectRatio="xMidYMid meet">
<g transform="translate(0.000000,640.000000) scale(0.100000,-0.100000)"
fill="#000000" stroke="none">
<path d="M10097 5565 c-83 -21 -94 -29 -90 -62 5 -29 -25 -94 -86 -189 -18
-28 -33 -58 -35 -66 -1 -8 -24 -40 -51 -71 -83 -96 -130 -182 -188 -350 -10
-26 -27 -11 -27 24 0 16 -3 29 -6 29 -3 0 -44 -35 -92 -78 -101 -90 -144 -122
-165 -122 -21 0 -28 44 -36 222 -3 86 -9 159 -12 162 -3 3 -48 -30 -100 -74
-76 -64 -108 -84 -166 -104 -39 -13 -74 -22 -77 -18 -3 3 18 29 47 57 55 54
82 99 93 154 6 29 5 31 -23 31 -16 0 -65 -9 -108 -20 -42 -11 -81 -17 -86 -14
-5 3 -9 24 -9 46 l0 41 -101 -5 -102 -5 -15 28 c-18 29 -100 75 -113 62 -4 -4
-11 -28 -16 -52 -4 -25 -13 -46 -19 -48 -6 -2 -34 27 -62 66 -28 38 -77 91
-107 119 -57 52 -174 117 -232 128 -31 6 -32 5 -48 -47 -9 -30 -18 -73 -22
-96 -3 -26 -11 -43 -19 -43 -7 0 -75 31 -151 68 -195 97 -305 137 -398 144
l-40 3 3 -62 c3 -41 0 -63 -7 -63 -6 0 -31 15 -55 34 -65 49 -135 70 -236 71
-108 0 -154 -20 -189 -84 -24 -44 -25 -44 -34 -20 -36 96 -56 111 -119 93 -45
-13 -70 -53 -76 -119 -2 -30 -8 -55 -12 -55 -5 0 -31 12 -60 27 -40 21 -66 27
-113 27 -75 0 -99 -12 -132 -64 -19 -31 -33 -40 -62 -45 -88 -15 -193 -66
-193 -95 0 -16 53 -72 77 -81 15 -5 23 -17 23 -32 0 -13 9 -32 20 -42 19 -18
27 -55 13 -68 -3 -4 -26 12 -51 34 -109 101 -381 182 -502 149 -49 -13 -106
-66 -112 -102 -6 -40 -27 -30 -54 27 -33 67 -78 110 -135 127 -35 10 -52 9
-107 -5 -81 -21 -114 -42 -317 -201 -88 -69 -165 -126 -172 -126 -7 0 -26 20
-43 45 -39 57 -103 101 -176 120 -69 18 -91 19 -133 4 -42 -15 -61 -55 -61
-129 0 -33 -4 -60 -10 -60 -5 0 -20 14 -32 31 -63 87 -251 198 -401 239 -44
12 -107 35 -140 51 -104 49 -164 51 -185 5 -16 -35 -60 -42 -109 -16 -45 23
-137 38 -146 23 -3 -5 -9 -41 -12 -79 -10 -108 -11 -112 -48 -119 -23 -5 -48
1 -89 20 -65 30 -152 46 -202 38 -30 -5 -35 -10 -41 -41 -16 -84 -65 -144
-149 -178 -25 -11 -46 -21 -46 -24 0 -3 -5 -12 -10 -20 -7 -12 -16 -7 -45 28
-20 23 -43 42 -50 42 -14 0 -45 -85 -45 -122 0 -24 -27 -23 -35 1 -3 11 -12
24 -20 31 -11 9 -15 2 -22 -41 -4 -29 -13 -54 -19 -56 -7 -2 -28 19 -48 46
-50 67 -120 129 -181 157 -75 36 -79 34 -93 -43 -7 -38 -17 -72 -22 -77 -4 -4
-28 5 -53 23 -59 40 -120 56 -181 47 l-48 -7 5 -52 c2 -29 8 -63 12 -75 8 -23
6 -24 -41 -21 -49 3 -49 3 -46 -26 5 -44 40 -120 68 -146 14 -13 24 -34 24
-51 0 -32 -5 -33 -118 -43 l-73 -6 -56 51 c-110 100 -220 159 -299 160 -39 0
-42 -2 -48 -31 -3 -17 -6 -44 -6 -60 0 -45 -18 -44 -62 6 -58 66 -106 88 -207
93 -79 4 -84 4 -77 -14 4 -11 10 -34 13 -51 7 -39 25 -37 -206 -22 -181 11
-282 4 -345 -26 -20 -10 -36 -23 -36 -31 0 -35 293 -174 464 -219 58 -15 103
-32 100 -36 -3 -5 -114 -9 -247 -9 l-242 -1 29 -23 c16 -14 53 -32 83 -41 29
-9 53 -20 53 -25 0 -4 -25 -10 -55 -12 -31 -3 -60 -9 -66 -15 -14 -14 31 -83
78 -119 33 -25 34 -27 17 -45 -16 -17 -34 -19 -213 -20 -185 0 -293 -8 -307
-21 -9 -9 23 -65 62 -108 l35 -39 -63 -32 c-35 -17 -83 -47 -107 -67 l-44 -36
22 -17 c34 -28 122 -57 192 -64 87 -9 94 -12 79 -30 -28 -34 62 -91 174 -109
38 -7 71 -17 73 -23 2 -6 -24 -15 -64 -22 -163 -27 -253 -45 -253 -52 0 -15
95 -50 227 -85 76 -20 142 -39 146 -43 4 -4 -22 -37 -59 -73 l-67 -65 82 -7
c89 -7 157 -25 153 -41 -1 -6 -62 -13 -144 -16 -153 -6 -231 -16 -224 -28 3
-4 44 -31 91 -61 47 -29 84 -58 82 -63 -2 -6 -32 -20 -68 -32 -99 -34 -182
-81 -193 -111 -14 -37 180 -94 316 -94 110 0 112 -12 10 -54 -56 -23 -69 -32
-61 -43 23 -27 111 -43 234 -43 67 0 124 -3 127 -6 3 -3 -1 -23 -9 -44 -20
-50 -10 -64 59 -80 61 -15 142 -8 221 19 31 11 58 17 58 13 1 -4 1 -55 -1
-114 l-2 -106 38 -11 c71 -20 188 -13 270 14 92 31 94 31 94 0 0 -21 8 -27 58
-42 46 -14 95 -18 251 -18 151 0 195 -3 199 -13 4 -13 -82 -104 -128 -134 -25
-17 -24 -17 38 -17 35 -1 106 4 159 10 55 7 98 8 103 3 6 -6 -1 -32 -16 -63
-13 -30 -23 -55 -22 -56 15 -14 108 -27 226 -32 138 -6 142 -7 142 -28 0 -12
-5 -37 -11 -54 -7 -20 -8 -36 -2 -42 20 -20 116 11 232 75 137 76 163 82 421
96 102 5 213 15 247 21 67 13 75 11 78 -23 2 -32 35 -38 230 -44 203 -7 202
-7 183 -37 -8 -12 -23 -44 -34 -72 -12 -32 -37 -68 -71 -101 -29 -28 -53 -58
-53 -67 0 -17 54 -40 133 -57 28 -6 88 -8 141 -4 71 5 95 4 101 -6 5 -9 0 -20
-14 -31 -35 -29 -101 -112 -95 -121 13 -21 228 1 307 31 58 22 64 17 74 -61
l8 -73 36 -9 c77 -19 159 20 196 93 12 24 24 46 27 48 2 3 11 -17 19 -44 42
-142 206 -353 273 -353 21 0 52 40 59 74 11 53 16 66 26 66 5 0 50 -25 100
-54 50 -30 114 -62 144 -70 67 -20 167 -20 232 -1 43 13 61 27 119 93 55 63
85 87 163 130 53 30 114 72 137 93 22 22 43 36 47 33 4 -4 7 -23 7 -41 0 -30
5 -36 37 -49 79 -33 164 6 207 95 l21 46 85 2 c47 1 155 5 240 8 85 3 160 2
167 -2 6 -5 15 -51 20 -103 l8 -95 30 4 c56 6 135 42 211 97 60 43 79 52 90
43 8 -6 14 -18 14 -27 0 -34 80 -180 113 -204 39 -30 104 -51 113 -37 3 6 8
55 11 110 3 54 10 99 16 99 5 0 36 -25 69 -55 149 -139 319 -219 388 -183 37
20 53 78 45 166 -7 84 -6 85 83 48 61 -25 158 -51 234 -61 58 -9 60 -5 83 135
18 113 52 202 82 218 14 8 63 -4 208 -53 176 -58 316 -95 364 -95 19 0 20 8
23 91 l3 90 55 19 c50 17 100 57 100 81 0 17 -41 50 -70 56 -53 10 -53 23 -5
123 41 83 48 92 68 85 41 -12 118 -26 129 -23 6 2 12 21 14 42 2 21 6 41 8 44
3 3 23 -11 45 -31 22 -20 59 -41 83 -48 53 -14 163 -7 280 17 48 10 90 15 94
12 3 -4 -1 -17 -10 -30 -38 -53 -4 -56 133 -11 95 31 148 62 219 129 31 30 58
54 59 54 2 0 3 -50 3 -111 l0 -112 42 6 c56 8 88 33 118 95 14 28 27 52 30 52
3 0 16 -21 30 -47 23 -44 89 -103 115 -103 14 0 31 35 41 84 3 20 11 39 17 43
5 3 54 14 109 24 123 22 167 43 193 91 11 21 23 38 27 38 4 0 22 -28 40 -62
67 -125 189 -224 269 -216 31 3 34 6 47 58 7 30 15 57 17 59 2 2 19 -12 37
-32 46 -49 102 -63 194 -49 136 21 238 79 265 149 9 23 12 24 76 18 96 -8 101
-3 81 82 -10 43 -13 72 -7 79 21 25 135 39 327 39 134 0 192 3 192 11 0 18
-93 100 -139 123 -23 12 -39 26 -36 30 3 5 37 15 75 22 39 7 70 14 70 17 0 2
-8 17 -17 33 -11 18 -14 32 -8 38 6 6 62 23 127 40 117 30 171 51 184 73 9 14
-26 45 -176 151 -175 124 -202 147 -189 163 6 8 19 14 28 14 29 0 119 48 130
69 34 63 -12 145 -132 233 -43 32 -65 54 -59 60 5 5 56 28 113 51 110 45 252
131 246 151 -2 6 -18 20 -35 31 -37 24 -39 32 -9 40 49 14 97 39 97 51 0 28
-138 88 -264 114 -31 6 -58 15 -60 19 -3 4 9 26 25 50 18 27 29 57 29 78 0 31
-2 33 -34 33 -24 0 -47 11 -85 42 l-52 42 7 108 7 108 -86 0 c-58 0 -87 4 -89
12 -3 7 6 60 19 118 12 58 23 125 23 150 0 45 -14 117 -23 127 -8 7 -93 -54
-111 -79 -21 -30 -28 -19 -29 45 -3 91 -51 121 -123 76 -19 -11 -37 -18 -42
-15 -5 3 -14 23 -22 45 l-13 41 -53 -6 -52 -7 -20 39 c-26 51 -53 75 -130 115
-67 35 -82 53 -91 109 -6 31 -10 35 -41 38 -31 3 -39 9 -63 52 -34 60 -43 67
-67 45 -26 -23 -35 -15 -49 49 -7 31 -16 58 -20 61 -5 2 -30 -3 -56 -11 -44
-16 -48 -16 -64 2 -10 11 -23 37 -29 60 -26 92 -135 191 -313 284 -149 77
-215 91 -459 96 -158 3 -218 0 -263 -11z"/>
</g>
</svg>
